<svg width="100" height="100" viewBox="0 0 100 100" fill="none" xmlns="http://www.w3.org/2000/svg">
<g clip-path="url(#clip0_3_4)">
<rect width="100" height="100" fill="white"/>
<g filter="url(#filter0_d_3_4)">
<rect x="10" y="10" width="80" height="80" rx="10" fill="white"/>
</g>
<path d="M66.5795 32.4545C66.1534 28.8561 64.4252 26.0625 61.3949 24.0739C58.3646 22.0852 54.6477 21.0909 50.2443 21.0909C47.0246 21.0909 44.2074 21.6117 41.7926 22.6534C39.4015 23.6951 37.5313 25.1274 36.1818 26.9503C34.8561 28.7732 34.1932 30.8447 34.1932 33.1648C34.1932 35.1061 34.6548 36.7751 35.5781 38.1719C36.5251 39.545 37.7325 40.6932 39.2003 41.6165C40.6681 42.5161 42.2069 43.2618 43.8168 43.8537C45.4266 44.4219 46.9062 44.8835 48.2557 45.2386L55.642 47.2273C57.536 47.7244 59.643 48.411 61.9631 49.2869C64.3068 50.1629 66.544 51.3584 68.6747 52.8736C70.8291 54.3651 72.6046 56.2827 74.0014 58.6264C75.3982 60.9702 76.0966 63.8466 76.0966 67.2557C76.0966 71.1856 75.0668 74.7367 73.0071 77.9091C70.9711 81.0814 67.9882 83.6027 64.0582 85.473C60.152 87.3433 55.4053 88.2784 49.8182 88.2784C44.6098 88.2784 40.0999 87.438 36.2884 85.7571C32.5005 84.0762 29.5175 81.7325 27.3395 78.7259C25.1851 75.7192 23.9659 72.2273 23.6818 68.25H32.7727C33.0095 70.9962 33.9328 73.2689 35.5426 75.0682C37.1761 76.8437 39.2358 78.1695 41.7216 79.0455C44.2311 79.8977 46.9299 80.3239 49.8182 80.3239C53.1799 80.3239 56.1984 79.7794 58.8736 78.6903C61.5488 77.5777 63.6676 76.0388 65.2301 74.0739C66.7926 72.0852 67.5739 69.7652 67.5739 67.1136C67.5739 64.6989 66.8991 62.7339 65.5497 61.2188C64.2003 59.7036 62.4247 58.4725 60.223 57.5256C58.0213 56.5786 55.642 55.75 53.0852 55.0398L44.1364 52.483C38.4545 50.8494 33.9564 48.5175 30.642 45.4872C27.3277 42.4569 25.6705 38.4915 25.6705 33.5909C25.6705 29.5189 26.7713 25.9678 28.973 22.9375C31.1984 19.8835 34.1813 17.5161 37.9219 15.8352C41.6861 14.1307 45.8883 13.2784 50.5284 13.2784C55.2159 13.2784 59.3826 14.1188 63.0284 15.7997C66.6742 17.4569 69.5625 19.7296 71.6932 22.6179C73.8475 25.5062 74.9839 28.785 75.1023 32.4545H66.5795Z" fill="black"/>
</g>
<defs>
<filter id="filter0_d_3_4" x="0" y="0" width="100" height="100" filterUnits="userSpaceOnUse" color-interpolation-filters="sRGB">
<feFlood flood-opacity="0" result="BackgroundImageFix"/>
<feColorMatrix in="SourceAlpha" type="matrix" values="0 0 0 0 0 0 0 0 0 0 0 0 0 0 0 0 0 0 127 0" result="hardAlpha"/>
<feMorphology radius="2" operator="dilate" in="SourceAlpha" result="effect1_dropShadow_3_4"/>
<feOffset/>
<feGaussianBlur stdDeviation="4"/>
<feComposite in2="hardAlpha" operator="out"/>
<feColorMatrix type="matrix" values="0 0 0 0 0 0 0 0 0 0 0 0 0 0 0 0 0 0 0.25 0"/>
<feBlend mode="normal" in2="BackgroundImageFix" result="effect1_dropShadow_3_4"/>
<feBlend mode="normal" in="SourceGraphic" in2="effect1_dropShadow_3_4" result="shape"/>
</filter>
<clipPath id="clip0_3_4">
<rect width="100" height="100" fill="white"/>
</clipPath>
</defs>
</svg>
